<?xml version="1.0" standalone="no"?>
<!DOCTYPE svg PUBLIC "-//W3C//DTD SVG 20010904//EN"
 "http://www.w3.org/TR/2001/REC-SVG-20010904/DTD/svg10.dtd">
<svg version="1.0" xmlns="http://www.w3.org/2000/svg"
 width="324.000000pt" height="79.000000pt" viewBox="0 0 324.000000 79.000000"
 preserveAspectRatio="xMidYMid meet">

<g transform="translate(0.000000,79.000000) scale(0.100000,-0.100000)"
fill="#000000" stroke="none">
<path d="M3081 743 c-15 -29 -59 -203 -70 -280 -13 -83 -21 -107 -56 -163 -41
-64 -112 -97 -154 -71 -36 23 42 129 130 178 85 46 50 73 -41 32 -50 -22 -114
-80 -136 -121 -24 -47 -18 -93 17 -122 17 -14 40 -26 52 -26 47 0 103 24 132
56 17 19 34 34 38 34 4 0 7 -15 7 -32 1 -49 35 -118 59 -118 29 0 31 9 15 75
-7 33 -14 83 -14 110 0 61 42 276 70 361 17 49 19 67 10 83 -13 26 -46 27 -59
4z"/>
<path d="M147 662 c-18 -21 -62 -195 -83 -334 -9 -57 -20 -111 -25 -121 -14
-25 8 -50 35 -43 12 4 71 11 131 17 133 12 177 24 173 47 -3 15 -18 17 -110
15 -58 -2 -118 -7 -133 -13 -15 -6 -30 -8 -33 -5 -3 3 3 33 12 67 27 98 76
318 76 343 0 34 -23 49 -43 27z"/>
<path d="M1716 657 c-19 -29 -65 -221 -78 -322 -5 -44 -15 -97 -21 -118 -14
-51 -3 -60 59 -48 27 5 85 12 129 16 102 7 147 21 143 43 -3 15 -17 17 -100
15 -52 -1 -112 -6 -132 -11 -20 -6 -38 -7 -40 -4 -2 4 14 77 35 162 48 191 59
274 35 283 -10 4 -21 -1 -30 -16z"/>
<path d="M888 583 c-9 -10 -32 -49 -51 -87 l-35 -69 -63 -16 c-43 -11 -64 -21
-64 -31 0 -15 20 -18 80 -9 27 4 30 2 27 -21 -2 -14 -5 -59 -8 -100 -5 -67 -3
-77 15 -97 32 -34 69 -39 110 -17 34 18 62 66 48 80 -3 3 -26 -4 -51 -16 -69
-33 -81 -26 -80 45 1 33 8 77 17 98 16 37 16 37 76 37 92 0 97 37 6 48 -54 6
-54 9 -14 100 16 35 20 55 13 62 -7 7 -16 5 -26 -7z"/>
<path d="M1218 583 c-9 -10 -32 -49 -51 -87 l-35 -69 -63 -16 c-43 -11 -64
-21 -64 -31 0 -15 20 -18 80 -9 27 4 30 2 27 -21 -2 -14 -5 -59 -8 -100 -5
-67 -3 -77 15 -97 32 -34 69 -39 110 -17 34 18 62 66 48 80 -3 3 -26 -4 -51
-16 -69 -33 -81 -26 -80 45 1 33 8 77 17 98 16 37 16 37 76 37 92 0 97 37 6
48 -54 6 -54 9 -14 100 16 35 20 55 13 62 -7 7 -16 5 -26 -7z"/>
<path d="M2107 460 c-75 -51 -127 -138 -129 -221 -1 -83 44 -123 118 -105 14
4 40 29 60 56 20 28 39 50 43 50 4 0 22 -19 40 -43 36 -48 85 -82 107 -73 26
10 15 35 -27 61 -47 30 -69 74 -69 138 0 58 -20 78 -57 57 -28 -16 -32 -22
-63 -90 -27 -61 -66 -102 -93 -98 -33 5 -33 41 -1 105 33 64 87 113 125 113
32 0 52 21 47 52 -5 35 -45 34 -101 -2z"/>
<path d="M515 431 c-110 -52 -148 -200 -70 -278 36 -36 61 -41 103 -19 94 49
130 162 77 240 -14 20 -25 43 -25 50 0 12 -21 26 -38 26 -4 0 -25 -9 -47 -19z
m84 -67 c39 -49 19 -127 -42 -164 -60 -37 -99 -20 -99 43 0 45 24 89 64 121
41 32 52 32 77 0z"/>
<path d="M1445 431 c-110 -52 -148 -200 -70 -278 36 -36 61 -41 103 -19 94 49
130 162 77 240 -14 20 -25 43 -25 50 0 12 -21 26 -38 26 -4 0 -25 -9 -47 -19z
m84 -67 c39 -49 19 -127 -42 -164 -60 -37 -99 -20 -99 43 0 45 24 89 64 121
41 32 52 32 77 0z"/>
<path d="M2441 403 c-10 -21 -29 -73 -41 -117 -23 -83 -21 -134 5 -156 22 -18
40 1 85 90 35 70 105 150 130 150 13 0 13 -56 -1 -119 -20 -92 20 -153 76
-117 31 20 32 34 3 38 -22 3 -23 6 -19 101 4 106 -4 127 -46 127 -37 0 -77
-25 -123 -77 -45 -52 -46 -49 -19 44 10 34 10 44 0 57 -20 24 -29 20 -50 -21z"/>
</g>
</svg>
